# xmcd
#
# Track frame offsets:
# 150
# 13957
# 40280
# 54059
# 80375
# 100931
# 131450
# 156625
# 183656
# 202592
# 219671
# 242634
# 264116
#
# Disc length: 4207 seconds
#
#
# Revision: 0
# Processed by: cddbd v1.5.1PL2 Copyright (c) Steve Scherf et al.
# Submitted via: FreeRIP 2.945 
#
DISCID=a9106d0d
DTITLE=Tibits - No Bar do Arthurzinho
DYEAR=1900
DGENRE=Blues
TTITLE0=Let me love you baby
TTITLE1=Mary had a little lamb
TTITLE2=Tell me
TTITLE3=No bar do Arthurzinho (Daniel, Renato e Tibits)
TTITLE4=Como é bom tocar um blues (Celso e Dênis)
TTITLE5=Couldn't stand the weather
TTITLE6=Life withtout you
TTITLE7=Tightrope
TTITLE8=Love struck baby
TTITLE9=Chitlins com carne
TTITLE10=Texas flood
TTITLE11=Shake For Me
TTITLE12=Lenny
EXTD=
EXTT0=
EXTT1=
EXTT2=
EXTT3=
EXTT4=
EXTT5=
EXTT6=
EXTT7=
EXTT8=
EXTT9=
EXTT10=
EXTT11=
EXTT12=
PLAYORDER=
